<svg version="1.1" xmlns="http://www.w3.org/2000/svg" xmlns:xlink="http://www.w3.org/1999/xlink" width="142.41427" height="136.79561" viewBox="0,0,142.41427,136.79561">
  <defs>
    <linearGradient x1="194.63331" y1="199.74758" x2="335.38536" y2="199.74758" gradientUnits="userSpaceOnUse" id="color-1">
      <stop offset="0" stop-color="#e66000" />
      <stop offset="1" stop-color="#ffcb00" />
    </linearGradient>
  </defs>
  <g transform="translate(-192.9711,-128.20442)">
    <g data-paper-data="{&quot;isPaintingLayer&quot;:true}" fill-rule="nonzero" stroke-miterlimit="10" stroke-dasharray="" stroke-dashoffset="0" style="mix-blend-mode: normal">
      <path d="M202.44489,238.94613c1.17049,-2.22664 2.22622,-4.4206 3.69846,-7.89003c0.6065,-1.42927 1.01281,-2.94779 1.50063,-4.42719c-1.88794,0.14855 -4.22132,-0.64398 -7.12377,-2.79895c-1.65177,-1.22638 -1.40569,-3.88984 -1.75317,-5.91755c-0.24399,-1.42375 -0.38997,-2.87213 -0.43947,-4.32584c-2.48317,-3.44268 -3.18032,-8.36166 -3.55323,-12.09387c-0.40717,-4.07509 0.16432,-15.74085 0.49115,-19.88594c0.25614,-3.2485 0.16097,-6.5795 1.02253,-9.72213c0.00823,-0.03 0.0165,-0.05998 0.02484,-0.08993l-0.01261,-0.0018l0.9896,-6.92723c0.3117,-2.46193 2.4136,-4.36567 4.96015,-4.36567c0.93848,0 1.81656,0.25856 2.56691,0.70831c-0.29008,-7.3481 -0.53796,-14.68866 -0.05584,-22.04091c0,0 0.33259,-4.98892 5.32152,-4.65633c4.98892,0.33259 4.65633,5.32152 4.65633,5.32152c-0.16604,2.44733 -0.24608,4.89502 -0.26769,7.34318c1.08776,0.91718 1.77876,2.29002 1.77876,3.82423v2.81815c0.42475,1.16082 0.47612,2.4047 0.47087,3.65977c0.55296,0.40912 1.01858,0.92954 1.36375,1.52818l1.45285,2.42142l-0.16686,0.10012c0.24578,0.30629 0.4658,0.63394 0.65397,0.98799c1.02008,1.9193 0.91636,4.18031 0.79681,6.42958c0.8698,-3.44736 1.69558,-6.91326 2.51719,-10.39052l0.46594,-2.7956c0.358,-2.41007 2.43581,-4.25908 4.94548,-4.25908c2.14621,0 3.97659,1.35223 4.68564,3.25118l0.95674,2.39186l-0.18166,0.07267c0.16735,0.26749 0.31808,0.54637 0.44906,0.83875c0.34289,0.76543 0.48636,1.57662 0.51962,2.41213c0.38464,-0.68666 0.80151,-1.35442 1.25875,-1.99798c1.1689,-1.64525 2.32664,-3.93191 4.32102,-4.24118c6.64291,-1.03012 9.51143,2.55102 10.34403,7.85983c1.57509,0.8417 2.64681,2.50207 2.64681,4.41275c0,1.08885 -0.34805,2.09641 -0.93896,2.91749l-3.46488,4.94982l-0.06139,-0.04297c-0.04565,0.10448 -0.09258,0.20852 -0.14086,0.31212c-0.68193,1.46337 -1.80718,2.62828 -3.01779,3.73692c-2.15763,2.86443 -4.69152,5.55355 -7.00369,8.28998l-0.61118,0.76398c-0.68631,3.3987 -1.5147,6.78417 -2.4137,10.15689c0.66771,0.35572 1.24522,0.85844 1.68932,1.46499c2.4216,0.42813 4.2325,2.72847 5.78898,4.7969c1.27468,-0.67321 2.57905,-1.34494 3.91509,-2.02648l0.59939,0.0417l-0.05302,-0.21206l3.89123,-0.9728c0.42094,-0.11506 0.86402,-0.17648 1.32145,-0.17648c2.76142,0 5,2.23857 5,5c0,0.94946 -0.26464,1.8371 -0.72418,2.5932l-3.45693,5.92615l-0.04824,-0.02813c-0.05739,0.12683 -0.11618,0.25314 -0.17645,0.37888c-0.98746,2.06007 -4.43914,5.5684 -7.27367,8.37692l-0.35092,2.80734c-0.14738,1.33615 -0.82125,2.5137 -1.80958,3.32065c2.35062,1.06125 4.66818,2.26666 7.01695,3.38674c0.05373,-0.04583 0.1048,-0.08868 0.15308,-0.12847c2.53206,-2.0866 8.71363,-6.01978 12.51588,-7.22373c1.16091,-1.73937 2.31695,-3.47276 4.16705,-4.24715c2.55345,-1.06878 4.47832,-1.50955 5.91178,-1.47491c1.75026,-1.2192 3.62696,-2.09443 5.3697,-1.35439c0.33794,0.1435 0.64598,0.32887 0.92663,0.54943l2.54037,-6.98246c0.66719,-1.97677 2.53665,-3.40007 4.73854,-3.40007c0.88597,0 1.71812,0.23043 2.43978,0.63464c1.71859,-2.3645 4.00565,-4.28636 7.03433,-5.39612c1.18117,-0.4328 2.42824,-0.55126 3.68207,-0.43638c0.91717,-1.10122 2.29864,-1.80214 3.84382,-1.80214c1.27571,0 2.43983,0.47776 3.3232,1.26412c0.2212,-1.57464 0.46724,-3.14585 0.76652,-4.70705c0.86967,-4.53674 2.09909,-8.99867 3.0055,-13.52822c0.37662,-1.88205 0.06579,-4.00779 1.0354,-5.66423c0.04293,-0.07333 0.08657,-0.14615 0.1309,-0.21846l-0.06914,-0.01976l0.96963,-3.39372c0.56106,-2.14774 2.51443,-3.73268 4.83799,-3.73268c2.44846,0 4.48588,1.75992 4.91624,4.08376c1.73994,0.32223 3.16374,1.54537 3.7694,3.16742l0.95675,2.39186l-0.35915,0.14366l0.57335,0.52435c0.413,3.80795 0.94927,7.60908 1.57655,11.39736c2.063,0.61614 3.56687,2.52824 3.56687,4.79158v3.5h-0.18966l0.17868,0.33113c-0.1083,0.81156 -0.22613,1.61228 -0.35309,2.40365c0.53024,1.38386 0.18093,2.94693 -0.18081,4.51197c0.62781,2.72484 1.67324,5.36701 2.00742,8.14234c0.36306,3.01522 0.04206,6.07392 0.03746,9.11092c-0.0096,6.34492 1.25521,16.78346 -6.69909,20.43544c-5.21434,2.394 -6.80393,-2.40255 -7.23829,-6.86111c-2.12565,2.19749 -4.64938,4.13428 -7.39729,3.74425c-0.39752,-0.05642 -0.75589,-0.18292 -1.08032,-0.36702c-0.57855,1.37465 -2.08202,3.64806 -5.56558,2.95135c-2.54626,-0.50925 -3.50568,-2.0764 -3.83972,-3.46528c-0.59555,1.88483 -1.23709,3.75945 -1.92947,5.62292c-1.97455,5.31429 -3.19983,11.73422 -11.29079,9.19621c-0.87234,-0.27364 -1.63849,-0.62495 -2.31171,-1.0416c-3.19545,3.14099 -6.83739,5.66986 -11.16118,7.05875c-4.0784,1.31007 -7.40069,1.77353 -10.25617,0.41546c-0.78485,0.51256 -1.72258,0.81054 -2.7299,0.81064c-0.83574,0.62791 -1.87466,1 -3.00049,1c-2.59269,0 -4.72449,-1.97337 -4.97532,-4.50006c-0.00823,0.00004 -0.01645,0.00006 -0.02468,0.00006c-2.76143,0 -5,-2.23858 -5,-5c0,-0.37146 0.0405,-0.73346 0.11735,-1.08182l0.35751,-1.78756c-1.05482,1.0286 -2.10306,2.05942 -3.14025,3.09502l-0.29058,0.0794l0.07945,0.09931l-2.4689,1.97512c-0.86048,0.70055 -1.95848,1.12054 -3.15457,1.12054c-2.50834,0 -4.58528,-1.84706 -4.94491,-4.25526c-0.4626,0.33237 -0.92193,0.65949 -1.37828,0.97837l-0.24105,0.03947l0.04494,0.07863l-3.42376,1.95643c-0.74815,0.44608 -1.62261,0.70235 -2.55694,0.70235c-2.76143,0 -5,-2.23858 -5,-5c0,-0.45917 0.06189,-0.90389 0.1778,-1.32626c-1.3293,-0.79435 -2.56129,-2.14637 -3.64625,-3.63422c-0.90451,0.90248 -2.15286,1.46048 -3.53154,1.46048c-2.76143,0 -5,-2.23857 -5,-5c0,-0.65868 0.12736,-1.28762 0.35881,-1.86352l1.45954,-3.8921l0.02265,0.00849l0.01908,-0.11597c0.07035,-0.16378 0.13946,-0.32807 0.20753,-0.49279c-0.19468,-0.61235 -0.09542,-1.19057 0.18348,-1.74426c-0.07885,-0.19398 -0.15645,-0.38807 -0.23284,-0.5823c-2.39848,5.53933 -3.59506,7.51192 -6.45896,12.74715l-0.87365,2.18412c-0.70905,1.89896 -2.53943,3.25118 -4.68564,3.25118c-2.76143,0 -5,-2.23857 -5,-5c0,-0.59382 0.10351,-1.16346 0.29349,-1.69186l1.9631,-5.88928c0,0 0.66803,-2.00408 2.4383,-2.97273zM229.22098,241.8065c0.01346,-0.02259 0.02701,-0.04515 0.04062,-0.06767l-0.05797,0.03387c0.00582,0.01125 0.01161,0.02251 0.01735,0.03379zM298.78554,214.03554c-0.63882,0.74409 -1.19554,1.56281 -1.6781,2.41656c-0.6171,1.09178 -0.88121,1.70239 -1.0283,2.3325c0.73071,0.86927 1.17086,1.99094 1.17086,3.21541c0,0.97036 -0.27642,1.87616 -0.75482,2.64294l-1.41057,2.35095c-0.53132,0.92148 -1.34803,1.65766 -2.32939,2.08777c-0.00235,0.03962 -0.00453,0.07923 -0.00653,0.11884c-0.02479,0.49181 -0.04404,0.98385 -0.05854,1.47604c1.62968,-2.02203 3.52972,-4.39168 5.14763,-6.41246c0.6366,-3.09839 0.91674,-5.46515 1.354,-9.05966c-0.06432,-0.49086 -0.11576,-0.97841 -0.14043,-1.45907c-0.08697,0.08844 -0.17554,0.18502 -0.26582,0.29018zM277.72156,251.3792c-1.02262,-0.35693 -1.79532,-0.8075 -2.3813,-1.33575c-0.636,0.29308 -1.34404,0.45655 -2.09026,0.45655c-0.16836,0 -0.33477,-0.00832 -0.49885,-0.02457c-0.13434,0.18383 -0.26838,0.36806 -0.40212,0.55272c-0.42775,0.95057 -0.8554,1.9012 -1.28483,2.851c0.87547,-0.28806 1.81327,-0.38922 2.69924,-0.65305c0.95463,-0.28428 2.03287,-0.36327 2.82926,-0.96151c0.38365,-0.28819 0.75978,-0.58346 1.12885,-0.88538zM232.03758,235.91422c-0.87598,1.99442 -1.65874,3.75346 -2.17081,4.9097c1.19735,-1.67356 2.73376,-3.16828 3.9972,-4.80698c-0.60135,-0.06683 -1.20983,-0.10258 -1.82639,-0.10271z" fill="url(#color-1)" stroke="none" stroke-width="0.5" stroke-linecap="butt" stroke-linejoin="miter" />
      <g fill="none" stroke="#000000" stroke-width="5" stroke-linecap="round" stroke-linejoin="round">
        <path d="M316.23217,159.11754c12.60223,20.19421 13.64348,46.53209 0.60145,68.25874c-18.19361,30.30863 -57.19399,40.64954 -88.0143,23.33687c-23.33146,-13.10595 -35.56829,-38.46048 -33.01528,-63.58968c0.81947,-8.0659 3.16267,-16.10862 7.15183,-23.71559" />
        <path d="M315.64598,159.22766c0.74998,1.05999 -1.27311,8.69352 -1.25319,10.68198c0,14.62762 -15.63505,32.70606 -29.8997,43.74029c-8.07968,5.82201 -30.66845,16.43706 -48.98383,9.48986c17.76367,2.75857 16.19753,-20.61621 28.52394,-21.35666c-6.78025,-9.82918 -21.81366,1.49349 -28.70281,-2.17975c-5.24127,-2.7876 -12.52886,-11.74868 -3.12072,-18.55796c9.26295,-5.61149 27.38379,-15.9316 28.61788,-23.00949c-6.95892,-2.12486 -13.57544,-3.1935 -22.37788,-2.2237c-4.42951,0.48801 -9.41253,1.49221 -15.27126,3.13774c-3.15443,-0.88148 -12.71031,-25.233 -12.99946,-28.24555c-6.63506,5.7349 -9.24771,41.59229 3.49974,52.98224" />
      </g>
      <g stroke="#000000" stroke-linecap="butt" stroke-linejoin="miter">
        <path d="" fill="none" stroke-width="2.5" />
        <path d="M214.7,143.05784c9.77617,0 68.72437,0 90.23191,0c4.89094,0 7.8457,2.80596 7.8457,6.93999c0,9.74546 0,26.87131 0,32.01646c0,1.22947 -1.84168,1.4504 -2.38151,2.50972c-0.72476,1.42225 -0.35127,3.5086 -1.91215,3.5086" fill="none" stroke-width="2.5" />
        <path d="M229.55982,194.29021c8.06831,-8.19867 19.28977,-13.27962 31.70155,-13.27962c15.2145,0 28.64041,7.63471 36.66234,19.28786" fill="none" stroke-width="1.5" />
        <path d="M295.5625,203.25166c-5.94194,0.00105 -34.30113,0.00603 -34.30113,0.00603" fill="none" stroke-width="1.5" />
        <path d="M261.26135,203.25769c8.95521,0 16.67441,5.29459 20.19968,12.92507c1.30995,2.83541 -42.44014,11.77939 -42.44014,9.32201" fill="none" stroke-width="1.5" />
        <path d="M256.71966,208.00687c1.47087,-0.38209 2.99608,-0.58016 4.5417,-0.58014c4.79283,-0.00002 9.38937,1.90461 12.77843,5.29491v-0.00002c1.40004,1.40055 2.54664,3.00725 3.41027,4.74878c0.96627,1.9485 -34.24966,10.45102 -34.26017,8.0344c0,-1.11633 0.10322,-2.22201 0.30436,-3.30428" fill="none" stroke-width="1.5" />
        <path d="M312.77762,188.03293v0.58294z" fill="#bdc1c6" stroke-width="2.5" opacity="0.1" />
      </g>
      <path d="M241.375,157.14773c0,-2.33592 3.95519,-6.89773 7.25,-6.89773c3.70204,0 16.58143,0 24.27272,0c6.96807,0 8.97728,4.48719 8.97728,6.80682c0,2.42563 -1.86088,7.53409 -8.88637,7.53409c-4.38448,0 -10.62315,-0.03199 -15.7405,-0.05802" fill="none" stroke="#000000" stroke-width="2.5" stroke-linecap="butt" stroke-linejoin="miter" />
    </g>
  </g>
</svg>
